:FULLY-SPECIFIED
:FORCE-ALL-JOINTS-BE-3DOF
:DEGREES
404
root 9.69258 16.8759 20.446 6.54742 -1.56662 -7.64815
lfemur -43.0715 -3.97443 -8.46632
ltibia 20.9122 -0 0
lfoot -15.9814 13.4921 -0.0148522
ltoes -12.431 0 0
rfemur 17.607 5.87117 33.1959
rtibia -1.37824e-14 0 0
rfoot -7.8155 6.95955 9.93453e-05
rtoes -11.2941 0 0
lowerback -8.20685 3.21855 3.46295
upperback 0.188953 3.75917 4.07421
thorax 4.74817 1.89519 2.76193
lowerneck -19.0144 -6.08421 -13.3468
upperneck 21.1154 -7.7799 12.9668
head 11.0376 -3.15169 5.78213
lclavicle -2.26367e-14 -2.48481e-14 0
lhumerus -53.7139 -9.28256 96.4461
lradius 27.1919 -0 0
lwrist 8.19579 0 0
lhand -11.4669 -27.8872 0.00278132
lfingers 7.12502 0 0
lthumb 14.5706 1.58062 0.00261897
rclavicle -2.26367e-14 -2.48481e-14 0
rhumerus -27.1977 15.1724 -84.9758
rradius 39.5121 -0 0
rwrist -17.9707 0 0
rhand -30.7305 -20.737 -0.00148989
rfingers 7.12502 0 0
rthumb -4.02298 -50.6784 -0.00146256
405
root 9.70762 16.85 20.6167 6.60893 -1.58466 -7.76242
lfemur -42.9739 -3.18022 -8.93994
ltibia 21.5304 -0 0
lfoot -15.7704 12.4453 -0.0309872
ltoes -12.2441 0 0
rfemur 18.1655 5.83645 33.2719
rtibia -1.80231e-14 0 0
rfoot -7.64698 6.98735 0.000782142
rtoes -12.2257 0 0
lowerback -8.33343 3.251 3.48569
upperback 0.154064 3.79387 4.07497
thorax 4.7836 1.91256 2.76152
lowerneck -19.0653 -6.09449 -13.303
upperneck 21.1483 -7.79425 12.9264
head 11.0577 -3.15737 5.75735
lclavicle -6.4357e-15 -9.1441e-15 0
lhumerus -53.8229 -9.24073 96.4267
lradius 27.1456 -0 0
lwrist 7.88726 0 0
lhand -11.1391 -27.5208 0.00160166
lfingers 7.12502 0 0
lthumb 14.8864 1.92455 0.00171906
rclavicle -6.4357e-15 -9.1441e-15 0
rhumerus -27.5262 15.0426 -85.1915
rradius 39.3272 -0 0
rwrist -17.8212 0 0
rhand -30.5088 -20.9272 -0.00269467
rfingers 7.12502 0 0
rthumb -3.80884 -50.8723 -0.00264711
406
root 9.72266 16.8241 20.7874 6.67431 -1.60052 -7.86762
lfemur -42.8499 -2.21689 -9.53863
ltibia 22.2509 -0 0
lfoot -15.4553 11.2788 -0.0441057
ltoes -12.189 0 0
rfemur 18.7336 5.79978 33.3385
rtibia -2.22639e-14 0 0
rfoot -7.45407 6.9994 0.00157382
rtoes -13.2651 0 0
lowerback -8.46225 3.29016 3.49741
upperback 0.115082 3.83907 4.06605
thorax 4.81568 1.93497 2.75836
lowerneck -19.1387 -6.11637 -13.2613
upperneck 21.1975 -7.82444 12.8901
head 11.091 -3.16915 5.73229
lclavicle 9.76525e-15 6.5599e-15 0
lhumerus -53.9001 -9.21308 96.3824
lradius 27.0701 -0 0
lwrist 7.53736 0 0
lhand -10.761 -27.0455 -0.00153148
lfingers 7.12502 0 0
lthumb 15.2508 2.37352 -0.000986772
rclavicle 9.76525e-15 6.5599e-15 0
rhumerus -27.8873 14.8926 -85.4107
rradius 39.1397 -0 0
rwrist -17.6924 0 0
rhand -30.2482 -21.196 -0.00307411
rfingers 7.12502 0 0
rthumb -3.55713 -51.1453 -0.00302154
407
root 9.73769 16.7981 20.9582 6.74973 -1.61343 -7.94219
lfemur -42.7326 -1.19904 -10.205
ltibia 23.0091 -0 0
lfoot -14.9391 10.1668 -0.0474004
ltoes -12.2146 0 0
rfemur 19.2918 5.76017 33.3648
rtibia -2.65046e-14 0 0
rfoot -7.19104 6.99608 0.00198535
rtoes -14.2799 0 0
lowerback -8.58859 3.32931 3.48735
upperback 0.0675343 3.8877 4.04177
thorax 4.83689 1.95877 2.75106
lowerneck -19.2231 -6.14651 -13.2305
upperneck 21.2539 -7.86671 12.8695
head 11.1325 -3.18514 5.7134
lclavicle 2.59662e-14 2.22639e-14 0
lhumerus -53.9437 -9.18384 96.312
lradius 26.9635 -0 0
lwrist 7.16822 0 0
lhand -10.3335 -26.4927 -0.00449614
lfingers 7.12502 0 0
lthumb 15.6626 2.89523 -0.00365494
rclavicle 2.59662e-14 2.22639e-14 0
rhumerus -28.2784 14.7211 -85.6342
rradius 38.9428 -0 0
rwrist -17.5531 0 0
rhand -29.9772 -21.5103 -0.00241822
rfingers 7.12502 0 0
rthumb -3.29545 -51.4639 -0.00237911
408
root 9.75273 16.7722 21.129 6.84135 -1.62269 -7.96458
lfemur -42.6506 -0.242147 -10.8832
ltibia 23.7402 -0 0
lfoot -14.1251 9.28377 -0.0336063
ltoes -12.2701 0 0
rfemur 19.8207 5.71726 33.3202
rtibia -3.07454e-14 0 0
rfoot -6.81216 6.97777 0.00157384
rtoes -15.1378 0 0
lowerback -8.70776 3.36167 3.44481
upperback 0.00694181 3.93265 3.99642
thorax 4.8397 1.9803 2.73822
lowerneck -19.307 -6.18161 -13.2193
upperneck 21.3083 -7.91735 12.8763
head 11.1769 -3.20345 5.7071
lclavicle 4.21672e-14 3.79679e-14 0
lhumerus -53.9519 -9.13721 96.2138
lradius 26.8236 -0 0
lwrist 6.80196 0 0
lhand -9.85759 -25.8938 -0.00491148
lfingers 7.12502 0 0
lthumb 16.1209 3.45744 -0.0041683
rclavicle 4.21672e-14 3.79679e-14 0
rhumerus -28.6966 14.5266 -85.8624
rradius 38.7298 -0 0
rwrist -17.3721 0 0
rhand -29.7245 -21.8371 -0.00107272
rfingers 7.12502 0 0
rthumb -3.05141 -51.7947 -0.00105805
409
root 9.76776 16.7463 21.2997 6.95533 -1.62769 -7.91323
lfemur -42.6284 0.537503 -11.5189
ltibia 24.3795 0 0
lfoot -12.9164 8.80434 0
ltoes -12.3043 0 0
rfemur 20.301 5.67112 33.1737
rtibia -3.49861e-14 0 0
rfoot -6.2717 6.94485 0
rtoes -15.7064 0 0
lowerback -8.81505 3.38045 3.35908
upperback -0.0711697 3.96681 3.92433
thorax 4.81657 1.99588 2.71843
lowerneck -19.3789 -6.21844 -13.2366
upperneck 21.3514 -7.97265 12.9222
head 11.2191 -3.22222 5.71982
lclavicle 5.83681e-14 5.36719e-14 0
lhumerus -53.9232 -9.05733 96.0867
lradius 26.6485 0 0
lwrist 6.46069 0 0
lhand -9.33428 -25.28 0
lfingers 7.12502 0 0
lthumb 16.6246 4.02795 0
rclavicle 5.83681e-14 5.36719e-14 0
rhumerus -29.139 14.3078 -86.096
rradius 38.494 0 0
rwrist -17.1182 0 0
rhand -29.5186 -22.1435 0
rfingers 7.12502 0 0
rthumb -2.85258 -52.1042 0
